<svg width="71" height="77" viewBox="0 0 71 77" fill="none" xmlns="http://www.w3.org/2000/svg">
<g clip-path="url(#clip0_6_3852)">
<path d="M4.09013 26.93L12.4101 14.07L16.4401 7.84999C17.8601 5.65999 19.4501 3.50999 20.6801 1.20999C21.1301 0.379988 20.2901 0.0299881 19.5701 -1.18683e-05C18.6301 -0.0400119 17.4401 0.349988 16.8601 1.11999C15.2701 3.21999 13.9401 5.54999 12.5101 7.75999L8.48012 13.98L0.150125 26.84C-0.389875 27.67 0.620125 28.05 1.30013 28.08C2.21012 28.12 3.56013 27.74 4.09013 26.92V26.93Z" fill="black"/>
<path d="M20.0398 40.99C36.4298 35.62 52.8798 30.4 69.2098 24.84C69.7798 24.65 71.1598 24.16 70.9398 23.31C70.7198 22.5 69.2198 22.68 68.6798 22.85C52.2298 28.03 35.8798 33.54 19.4898 38.92C18.8898 39.12 17.4498 39.63 17.6898 40.52C17.9098 41.36 19.4898 41.19 20.0498 41L20.0398 40.99Z" fill="black"/>
<path d="M16.7 59.74L29.47 67.89L35.75 71.9C37.91 73.28 40.04 74.79 42.29 76.01C43.06 76.42 44.25 76.11 44.96 75.74C45.33 75.55 46.5 74.73 45.82 74.22C43.76 72.67 41.49 71.37 39.32 69.99L33.04 65.98L20.06 57.69C18.9 56.95 14.99 58.65 16.69 59.74H16.7Z" fill="black"/>
</g>
<defs>
<clipPath id="clip0_6_3852">
<rect width="70.96" height="76.21" fill="white"/>
</clipPath>
</defs>
</svg>
